# xmcd
#
# Track frame offsets: 
#        150
#        11707
#        24872
#        36053
#        51419
#        64719
#        79808
#        91543
#        103426
#        116215
#        128698
#        138797
#        155134
#        165868
#
# Disc length: 2490 seconds
#
# Revision: 2
# Processed by: cddbd v1.5.2PL0 Copyright (c) Steve Scherf et al.
# Submitted via: ExactAudioCopy v0.95b4
#
DISCID=ad09b80e
DTITLE=Various Artist - Greatest Country Hits - CD 2
DYEAR=2008
DGENRE=Country
TTITLE0=Johnny Cash - Ring of fire
TTITLE1=Kenny Rogers - Ruby don't take yor love to town
TTITLE2=Roy Drusky - Blue eyes crying in the rain
TTITLE3=Boxcar Willie - Forty-nine nights
TTITLE4=Gordon Lightfoot - Long way back home
TTITLE5=Anne Murray - Both sides now
TTITLE6=Charlie Pride - There goes my everything
TTITLE7=Stonewall Jackson - Waterloo
TTITLE8=Conway Twitty - I can't stop loving you
TTITLE9=Sonny James - Running bear
TTITLE10=Porter Wagoner - Green green grass of home
TTITLE11=Rex Allen - Memory train
TTITLE12=Leroy Van Dyke - Walk on by
TTITLE13=Sammy's Saloon - The bluest eyes of Texas
EXTD=
EXTT0=
EXTT1=
EXTT2=
EXTT3=
EXTT4=
EXTT5=
EXTT6=
EXTT7=
EXTT8=
EXTT9=
EXTT10=
EXTT11=
EXTT12=
EXTT13=
PLAYORDER=
